<svg xmlns="http://www.w3.org/2000/svg" x="0px" y="0px" width="100" height="100" viewBox="0,0,256,256">
<g fill="#326fd4" fill-rule="nonzero" stroke="none" stroke-width="1" stroke-linecap="butt" stroke-linejoin="miter" stroke-miterlimit="10" stroke-dasharray="" stroke-dashoffset="0" font-family="none" font-weight="none" font-size="none" text-anchor="none" style="mix-blend-mode: normal"><g transform="scale(5.33333,5.33333)"><path d="M12.5,4c-2.4675,0 -4.5,2.0325 -4.5,4.5v31c0,2.4675 2.0325,4.5 4.5,4.5h23c2.4675,0 4.5,-2.0325 4.5,-4.5v-21c-0.00008,-0.3978 -0.15815,-0.77928 -0.43945,-1.06055l-0.01562,-0.01562l-12.98437,-12.98437c-0.28127,-0.2813 -0.66275,-0.43938 -1.06055,-0.43945zM12.5,7h11.5v8.5c0,2.4675 2.0325,4.5 4.5,4.5h8.5v19.5c0,0.39652 -0.14727,0.74723 -0.38672,1.01172l-9.77734,-9.37109c-0.78744,-0.75379 -1.81352,-1.13088 -2.83789,-1.13086c-1.02437,0.00002 -2.04688,0.37665 -2.83398,1.13086l-9.7793,9.37109c-0.23895,-0.2644 -0.38477,-0.61566 -0.38477,-1.01172v-31c0,-0.8465 0.6535,-1.5 1.5,-1.5zM27,9.12109l7.87891,7.87891h-6.37891c-0.8465,0 -1.5,-0.6535 -1.5,-1.5zM29.5,23c-1.381,0 -2.5,1.119 -2.5,2.5c0,1.381 1.119,2.5 2.5,2.5c1.381,0 2.5,-1.119 2.5,-2.5c0,-1.381 -1.119,-2.5 -2.5,-2.5zM24,32.99219c0.27175,-0.00011 0.54316,0.10524 0.76172,0.31445l8.02734,7.69336h-17.57812l8.02734,-7.69336c0.2179,-0.20879 0.48997,-0.31435 0.76172,-0.31445z"></path></g></g>
</svg>