<!-- <svg viewBox="0 0 64 64" xmlns="http://www.w3.org/2000/svg" stroke-width="3" stroke="#000000" fill="none"><g id="SVGRepo_bgCarrier" stroke-width="0"></g><g id="SVGRepo_tracerCarrier" stroke-linecap="round" stroke-linejoin="round"></g><g id="SVGRepo_iconCarrier"><path d="M51,53.48H10.52V13A2.48,2.48,0,0,1,13,10.52H46.07l7.41,6.4V51A2.48,2.48,0,0,1,51,53.48Z" stroke-linecap="round"></path><rect x="21.5" y="10.52" width="21.01" height="15.5" stroke-linecap="round"></rect><rect x="17.86" y="36.46" width="28.28" height="17.02" stroke-linecap="round"></rect></g></svg> -->

<svg xmlns="http://www.w3.org/2000/svg" width="24" height="24" viewBox="0 0 24 24" fill="none" stroke="currentColor" stroke-width="2" stroke-linecap="round" stroke-linejoin="round" class="lucide lucide-save h-4 w-4" data-lov-id="src/components/CourseHeader.tsx:96:12" data-lov-name="Save" data-component-path="src/components/CourseHeader.tsx" data-component-line="96" data-component-file="CourseHeader.tsx" data-component-name="Save" data-component-content="%7B%22className%22%3A%22h-4%20w-4%22%7D"><path d="M15.2 3a2 2 0 0 1 1.4.6l3.8 3.8a2 2 0 0 1 .6 1.4V19a2 2 0 0 1-2 2H5a2 2 0 0 1-2-2V5a2 2 0 0 1 2-2z"></path><path d="M17 21v-7a1 1 0 0 0-1-1H8a1 1 0 0 0-1 1v7"></path><path d="M7 3v4a1 1 0 0 0 1 1h7"></path></svg>
